{"glyphs":{":":{"x_min":0,"x_max":315,"ha":315,"o":"m 72 391 q 72 430 100 457 q 127 485 166 485 q 205 485 233 457 q 261 430 261 391 q 261 353 233 325 q 205 297 166 297 q 127 297 99 324 q 72 352 72 391 z m -16 78 q -16 117 12 144 q 41 172 79 172 q 118 172 146 144 q 174 117 174 78 q 174 40 146 12 q 118 -16 79 -16 q 40 -16 12 12 q -16 40 -16 78 z"},"$":{"x_min":0,"x_max":583,"ha":583,"o":"m 340 655 q 281 653 244 620 q 206 586 206 537 q 206 503 225 480 q 244 457 285 439 z m 297 271 l 235 33 q 303 35 346 70 q 388 105 388 157 q 388 195 366 222 q 345 250 297 271 z m 135 -145 l 170 -9 q 85 13 42 54 q -1 95 -1 154 q -1 203 24 232 q 49 262 90 262 q 125 262 149 240 q 172 217 172 182 q 172 146 140 120 q 108 94 108 89 q 108 76 129 61 q 149 47 182 38 l 247 291 q 160 330 124 375 q 88 419 88 485 q 88 583 160 643 q 233 703 353 704 l 371 775 l 426 775 l 406 698 q 480 684 526 641 q 572 598 572 543 q 572 503 546 477 q 521 451 483 451 q 450 451 430 470 q 409 489 409 519 q 409 557 440 577 q 470 597 470 602 q 470 618 449 632 q 427 646 394 651 l 334 417 q 432 375 475 326 q 518 277 518 210 q 518 112 437 48 q 356 -16 228 -16 l 223 -16 l 190 -145 z"},"?":{"x_min":0,"x_max":498,"ha":498,"o":"m 194 151 q 228 151 253 126 q 278 101 278 66 q 278 31 253 7 q 229 -18 194 -18 q 159 -18 135 7 q 110 32 110 66 q 110 101 135 126 q 161 151 194 151 z m 333 297 l 372 297 q 368 251 333 223 q 299 194 248 194 q 188 194 152 225 q 117 256 117 309 q 117 358 148 404 q 180 450 241 491 q 258 502 289 521 q 380 576 380 627 q 380 658 355 678 q 330 698 291 698 q 235 698 201 658 q 167 618 161 544 l 122 544 q 126 636 176 686 q 225 736 310 736 q 390 736 439 693 q 489 649 489 582 q 489 519 449 470 q 409 422 322 383 l 314 379 q 200 328 200 281 q 200 262 215 249 q 229 237 253 237 q 284 237 304 252 q 324 267 333 297 z"},"<":{"x_min":0,"x_max":833,"ha":833,"o":"m 704 583 l 704 476 l 268 298 l 704 120 l 704 13 l 129 250 l 129 347 z"},"'":{"x_min":0,"x_max":178,"ha":178,"o":"m 99 416 l 79 416 l 40 641 q 39 647 39 651 q 38 656 38 659 q 38 685 52 700 q 65 715 89 715 q 112 715 126 701 q 139 687 139 661 q 139 653 139 649 q 139 645 138 641 z"},"=":{"x_min":0,"x_max":833,"ha":833,"o":"m 124 242 l 709 242 l 709 145 l 124 145 z m 124 452 l 709 452 l 709 355 l 124 355 z"},"a":{"x_min":0,"x_max":669,"ha":669,"o":"m 322 75 q 284 27 242 6 q 201 -16 150 -16 q 75 -16 27 35 q -21 87 -21 167 q -21 291 68 386 q 156 481 274 481 q 316 481 346 466 q 376 451 396 420 l 411 470 l 568 470 q 520 328 489 219 q 458 110 458 90 q 458 80 463 75 q 467 70 478 70 q 494 70 519 98 q 543 125 578 182 l 613 156 q 569 72 514 27 q 459 -19 403 -19 q 364 -19 343 3 q 322 25 322 65 z m 366 350 q 366 387 350 407 q 333 427 303 427 q 274 427 249 408 q 224 389 203 351 q 177 304 161 243 q 144 183 144 137 q 144 96 160 75 q 175 53 205 53 q 234 53 259 73 q 284 93 305 134 q 332 185 349 248 q 366 310 366 350 z"},"L":{"x_min":0,"x_max":704,"ha":704,"o":"m -40 0 l -31 51 l 21 56 q 37 57 46 65 q 54 73 61 98 l 201 620 q 203 626 203 631 q 204 636 204 640 q 204 653 196 660 q 187 667 168 668 l 114 672 l 125 722 l 500 722 l 489 672 l 421 667 q 405 665 396 657 q 388 649 381 624 l 246 125 q 243 113 241 104 q 239 94 239 86 q 239 68 253 61 q 267 54 307 54 q 420 54 490 101 q 560 148 624 268 l 672 257 l 605 0 z"},"3":{"x_min":0,"x_max":583,"ha":583,"o":"m 345 358 q 424 345 466 304 q 508 263 508 198 q 508 104 425 42 q 342 -19 212 -19 q 115 -19 54 26 q -7 72 -7 142 q -7 190 21 221 q 48 252 92 252 q 128 252 150 229 q 173 206 173 169 q 173 133 141 109 q 110 85 110 74 q 110 57 136 42 q 162 28 198 28 q 268 28 311 85 q 353 142 353 235 q 353 291 337 314 q 321 337 283 337 q 274 337 254 333 q 234 329 223 329 q 205 329 196 336 q 187 343 187 357 q 187 375 194 384 q 201 392 216 392 q 222 392 242 388 q 263 385 277 385 q 333 385 372 435 q 410 485 410 559 q 410 609 387 636 q 363 663 321 663 q 287 663 261 648 q 236 632 236 613 q 236 603 256 585 q 276 567 276 541 q 276 507 252 486 q 229 464 193 464 q 155 464 133 488 q 110 511 110 551 q 110 616 174 661 q 239 705 337 705 q 433 705 494 659 q 555 613 555 541 q 555 472 498 422 q 441 372 345 358 z"},";":{"x_min":0,"x_max":315,"ha":315,"o":"m 77 391 q 77 430 105 457 q 133 485 172 485 q 210 485 238 457 q 266 430 266 391 q 266 353 238 325 q 210 297 172 297 q 133 297 105 325 q 77 353 77 391 z m -32 -151 l -46 -109 q 9 -88 37 -62 q 64 -36 69 -3 q 30 -3 8 17 q -13 37 -13 74 q -13 115 13 142 q 40 169 80 169 q 124 169 151 141 q 178 113 178 68 q 178 -2 125 -58 q 71 -114 -32 -151 z"},"J":{"x_min":0,"x_max":669,"ha":669,"o":"m 325 671 l 335 722 l 723 722 l 714 671 l 659 666 q 643 665 634 657 q 625 649 619 624 l 511 223 q 476 92 408 37 q 340 -19 218 -19 q 107 -19 45 29 q -16 77 -16 163 q -16 235 24 281 q 64 328 125 328 q 173 328 202 301 q 232 273 232 231 q 232 189 209 165 q 187 140 148 140 q 125 140 102 152 q 80 163 77 163 q 68 163 62 153 q 55 144 55 131 q 55 92 88 65 q 121 39 170 39 q 234 39 273 83 q 311 128 339 239 l 436 619 q 438 624 438 629 q 439 634 439 638 q 439 652 430 659 q 422 666 403 667 z"},"V":{"x_min":0,"x_max":735,"ha":735,"o":"m 328 -18 l 263 -18 l 131 612 q 125 644 115 655 q 104 667 84 668 l 37 670 l 43 722 l 395 722 l 395 670 l 335 669 q 315 668 306 661 q 297 653 297 639 q 297 634 297 632 q 297 630 298 628 l 386 208 l 592 573 q 600 587 605 604 q 610 621 610 631 q 610 647 596 657 q 583 667 559 669 l 517 671 l 526 722 l 801 722 l 795 671 q 757 671 733 656 q 710 642 681 593 z"},"\"":{"x_min":0,"x_max":345,"ha":345,"o":"m 265 416 l 245 416 l 206 641 q 205 647 205 651 q 204 656 204 659 q 204 685 218 700 q 231 715 255 715 q 279 715 292 700 q 306 686 306 661 q 306 658 306 654 q 305 649 304 641 z m 99 416 l 79 416 l 40 641 q 40 645 39 648 q 39 652 39 659 q 39 685 53 700 q 66 715 89 715 q 112 715 126 701 q 139 687 139 661 q 139 653 139 649 q 139 645 138 641 z"},"7":{"x_min":0,"x_max":583,"ha":583,"o":"m 115 434 l 72 452 l 174 699 q 258 694 312 692 q 365 690 409 690 q 459 690 511 692 q 562 694 616 699 l 616 667 q 525 538 459 417 q 394 295 361 197 q 347 155 336 101 q 324 47 320 37 q 305 2 282 -13 q 259 -28 221 -28 q 181 -28 157 -5 q 133 18 133 56 q 133 121 285 301 q 407 447 481 548 l 278 548 q 207 548 180 529 q 153 511 115 434 z"},"S":{"x_min":0,"x_max":683,"ha":683,"o":"m 42 0 l 0 0 l 50 284 l 98 276 l 98 271 q 98 163 156 99 q 215 36 315 36 q 389 36 432 68 q 474 100 474 155 q 474 230 322 281 l 313 284 q 194 324 147 376 q 99 429 99 512 q 99 610 173 675 q 247 740 364 740 q 426 740 477 721 q 527 703 572 663 l 623 716 l 667 716 l 625 455 l 573 462 q 570 576 519 633 q 468 690 370 690 q 311 690 274 658 q 237 625 237 575 q 237 510 385 455 q 414 445 429 439 q 537 397 576 351 q 615 305 615 231 q 615 119 535 51 q 454 -18 323 -18 q 253 -18 199 3 q 144 25 103 68 z"},"}":{"x_min":0,"x_max":500,"ha":500,"o":"m 84 740 q 199 740 241 705 q 283 669 283 571 l 283 477 q 283 396 311 366 q 338 336 414 329 l 414 292 q 338 285 311 255 q 283 225 283 144 l 283 50 q 283 -47 242 -83 q 200 -119 90 -119 l 84 -119 l 84 -90 q 142 -89 164 -63 q 186 -38 186 39 l 186 105 q 186 215 212 255 q 238 294 308 310 q 238 326 212 366 q 186 406 186 516 l 186 581 q 186 657 164 683 q 142 709 84 710 z"},"Z":{"x_min":0,"x_max":683,"ha":683,"o":"m 209 54 l 237 54 q 381 54 453 105 q 525 155 585 282 l 631 264 l 562 0 l 3 0 l 3 56 l 469 668 l 429 668 q 328 668 258 620 q 188 572 132 464 l 79 474 l 145 722 l 678 722 l 678 669 z"},"x":{"x_min":0,"x_max":593,"ha":593,"o":"m 205 134 q 141 45 101 14 q 61 -17 17 -17 q -16 -17 -37 4 q -57 25 -57 59 q -57 89 -39 109 q -21 128 8 128 q 46 128 60 96 q 74 64 77 64 q 89 64 113 92 q 137 120 190 197 l 166 301 q 155 349 146 364 q 137 378 123 378 q 106 378 89 357 q 71 336 47 288 l 10 305 q 49 389 98 436 q 146 482 196 482 q 240 482 265 452 q 290 421 307 343 q 364 421 404 452 q 443 482 486 482 q 523 482 542 462 q 562 443 562 406 q 562 379 544 360 q 526 341 499 341 q 463 341 449 374 q 435 407 428 407 q 416 407 392 380 q 369 353 321 283 l 357 128 q 363 104 370 94 q 376 84 386 84 q 404 84 420 105 q 436 126 462 190 l 499 170 q 466 80 419 31 q 373 -17 317 -17 q 275 -17 249 17 q 224 51 205 134 z"},")":{"x_min":0,"x_max":407,"ha":407,"o":"m 159 718 l 187 739 q 245 668 275 580 q 305 491 305 390 q 305 216 207 69 q 109 -78 -42 -132 l -55 -104 q 0 -83 41 -32 q 81 18 118 114 q 162 228 186 341 q 210 454 210 542 q 210 601 198 644 q 185 686 159 718 z"},"&":{"x_min":0,"x_max":878,"ha":878,"o":"m 425 471 q 483 493 513 530 q 544 566 544 614 q 544 649 528 669 q 512 689 484 689 q 450 689 431 658 q 412 626 412 571 q 412 550 416 524 q 419 498 425 471 z m 402 76 q 363 138 334 208 q 306 278 286 361 q 242 341 216 299 q 190 257 190 205 q 190 139 227 94 q 264 50 319 50 q 340 50 360 56 q 380 62 402 76 z m 434 30 q 386 1 335 -13 q 284 -28 231 -28 q 135 -28 80 24 q 25 76 25 166 q 25 248 85 310 q 146 371 272 418 q 265 445 261 470 q 258 495 258 521 q 258 624 317 681 q 377 739 483 739 q 564 739 611 703 q 658 667 658 607 q 658 544 600 495 q 542 447 432 418 q 447 342 471 278 q 495 214 526 167 q 566 203 591 243 q 616 282 616 306 q 616 329 597 339 q 578 350 537 350 l 525 350 l 537 401 l 822 401 l 809 350 q 734 350 653 239 q 599 166 559 127 q 575 101 597 88 q 618 74 644 74 q 675 74 700 93 q 726 111 756 159 l 797 129 q 752 56 692 18 q 633 -19 560 -19 q 520 -19 490 -7 q 459 4 434 30 z"},"_":{"x_min":0,"x_max":500,"ha":500,"o":"m 0 -136 l 500 -136 l 500 -236 l 0 -236 z"},"v":{"x_min":0,"x_max":553,"ha":553,"o":"m 86 359 q 89 370 90 378 q 92 386 92 391 q 92 409 80 415 q 68 421 15 422 l 27 468 l 276 479 l 191 197 q 185 174 181 154 q 178 133 178 116 q 178 88 195 72 q 212 55 240 55 q 270 55 298 73 q 326 91 351 128 q 381 171 399 219 q 418 268 418 299 q 418 312 412 323 q 406 333 388 347 l 385 349 q 342 384 342 416 q 342 447 360 466 q 378 485 408 485 q 447 485 468 460 q 489 436 489 390 q 489 333 468 262 q 447 191 411 131 q 368 59 311 21 q 254 -16 188 -16 q 112 -16 70 20 q 27 57 27 121 q 27 136 30 152 q 33 169 39 191 z"},"O":{"x_min":0,"x_max":831,"ha":831,"o":"m 615 525 q 615 608 582 651 q 548 694 484 694 q 425 694 378 650 q 331 606 290 513 q 254 432 235 349 q 216 267 216 196 q 216 119 250 75 q 285 31 346 31 q 401 31 448 70 q 495 109 532 185 q 571 264 593 355 q 615 447 615 525 z m 796 451 q 796 362 757 272 q 718 182 649 113 q 586 51 504 16 q 421 -18 335 -18 q 200 -18 117 63 q 34 144 34 276 q 34 365 76 458 q 118 550 190 619 q 253 679 331 711 q 409 742 494 742 q 629 742 712 662 q 796 581 796 451 z"},"(":{"x_min":0,"x_max":407,"ha":407,"o":"m 218 -110 l 190 -132 q 132 -61 102 28 q 72 117 72 218 q 72 392 170 539 q 268 686 419 740 l 432 712 q 377 691 337 640 q 296 590 259 494 q 215 380 191 267 q 167 153 167 65 q 167 6 179 -36 q 191 -78 218 -110 z"},"C":{"x_min":0,"x_max":762,"ha":762,"o":"m 725 715 l 765 715 l 709 432 l 658 436 l 658 440 q 658 561 615 625 q 573 689 493 689 q 438 689 390 653 q 342 617 303 546 q 266 477 245 400 q 224 323 224 255 q 224 158 270 105 q 315 52 398 52 q 473 52 532 98 q 591 145 636 237 l 689 212 q 640 97 556 40 q 472 -18 353 -18 q 203 -18 118 60 q 34 137 34 275 q 34 376 74 470 q 115 563 186 628 q 244 681 321 711 q 398 740 478 740 q 538 740 581 720 q 625 700 665 655 z"},"W":{"x_min":0,"x_max":938,"ha":938,"o":"m 206 -18 l 116 612 q 111 643 101 656 q 90 668 69 670 l 50 671 l 59 722 l 337 722 l 337 672 l 312 672 q 297 672 288 663 q 279 654 279 639 q 279 638 279 635 q 280 632 280 630 l 330 259 l 470 574 l 462 626 q 458 649 449 659 q 439 668 419 670 l 397 671 l 397 722 l 697 722 l 697 672 l 653 670 q 638 669 631 661 q 623 653 623 638 q 623 637 624 634 q 624 631 624 630 l 673 264 l 808 573 q 817 595 821 607 q 824 619 824 629 q 824 646 812 657 q 799 667 775 670 l 756 671 l 766 722 l 1007 722 l 1001 671 q 958 671 933 653 q 908 635 888 590 l 617 -18 l 554 -18 l 485 461 l 273 -18 z"},"A":{"x_min":0,"x_max":738,"ha":738,"o":"m 412 740 l 474 740 l 608 110 q 615 81 626 68 q 637 56 655 55 l 703 52 l 693 0 l 338 0 l 350 52 l 400 54 q 419 55 428 62 q 438 69 438 84 q 438 88 438 90 q 438 92 437 94 l 412 220 l 177 220 l 138 149 q 129 134 125 120 q 120 105 120 94 q 120 75 133 65 q 145 55 171 53 l 212 51 l 202 0 l -85 0 l -74 51 q -38 56 -8 76 q 22 96 43 129 z m 352 519 l 214 281 l 399 281 z"},"f":{"x_min":0,"x_max":387,"ha":387,"o":"m 269 470 l 395 470 l 384 413 l 257 413 l 208 200 q 180 82 151 -15 q 123 -112 93 -184 l -70 -208 q -36 -124 -2 -12 q 32 100 73 262 l 110 412 l 9 412 l 22 470 l 125 470 q 158 604 223 673 q 289 742 382 742 q 449 742 488 712 q 526 683 526 632 q 526 597 505 575 q 484 554 450 554 q 418 554 398 572 q 378 590 378 619 q 378 639 392 657 q 406 676 406 682 q 406 689 399 694 q 393 698 381 698 q 346 698 319 642 q 291 586 269 470 z"},"Q":{"x_min":0,"x_max":831,"ha":831,"o":"m 561 45 l 570 -16 q 577 -64 587 -83 q 597 -102 615 -102 q 633 -102 651 -83 q 669 -63 687 -25 l 730 -45 q 699 -116 648 -154 q 598 -191 534 -191 q 470 -191 437 -154 q 404 -117 400 -41 l 399 -14 q 385 -16 370 -17 q 355 -18 339 -18 q 201 -18 118 63 q 34 144 34 276 q 34 365 76 458 q 118 550 190 619 q 253 679 331 711 q 409 742 494 742 q 629 742 712 661 q 796 581 796 450 q 796 332 732 221 q 668 110 561 45 z m 407 41 q 411 62 413 81 q 415 100 415 118 q 415 169 396 195 q 377 220 339 220 q 304 220 282 196 q 261 171 261 130 q 261 86 288 60 q 314 34 359 34 q 369 34 380 36 q 391 37 407 41 z m 217 167 q 230 220 269 249 q 308 279 364 279 q 421 279 463 252 q 505 225 527 174 q 570 270 593 359 q 615 448 615 525 q 615 608 582 651 q 548 694 484 694 q 425 694 378 650 q 332 607 290 513 q 256 435 236 351 q 216 268 216 207 q 216 192 216 184 q 216 175 217 167 z"},"w":{"x_min":0,"x_max":831,"ha":831,"o":"m 86 339 q 92 356 95 370 q 98 384 98 391 q 98 409 86 415 q 74 421 21 422 l 33 468 l 277 479 l 188 182 q 181 156 177 141 q 174 126 174 118 q 174 95 186 83 q 199 70 221 70 q 276 70 325 166 q 375 263 426 468 l 578 468 q 524 286 509 224 q 494 162 494 134 q 494 104 508 88 q 521 71 546 71 q 570 71 594 90 q 619 110 640 147 q 664 188 678 231 q 693 273 693 299 q 693 312 688 322 q 682 332 664 347 q 663 348 660 350 q 617 385 617 416 q 617 447 636 466 q 654 485 686 485 q 726 485 745 459 q 764 433 764 379 q 764 329 743 259 q 721 189 687 132 q 645 62 589 22 q 533 -17 475 -17 q 421 -17 388 16 q 355 50 355 103 l 355 116 l 355 128 q 317 59 263 21 q 209 -17 148 -17 q 88 -17 53 15 q 19 46 19 102 q 19 121 23 145 q 27 169 35 191 z"},"-":{"x_min":0,"x_max":329,"ha":329,"o":"m -6 184 l 16 297 l 259 297 l 234 184 z"},"E":{"x_min":0,"x_max":741,"ha":741,"o":"m -40 0 l -31 51 l 22 56 q 38 58 47 67 q 56 76 62 98 l 202 620 q 204 626 204 631 q 205 636 205 640 q 205 653 197 660 q 188 667 169 668 l 115 672 l 126 722 l 728 722 l 687 475 l 635 477 l 635 492 q 635 596 599 632 q 563 668 451 668 q 414 668 400 660 q 387 651 379 624 l 319 402 l 338 402 q 408 402 448 431 q 487 460 509 526 l 562 519 l 469 181 l 417 187 q 419 207 421 222 q 422 237 422 250 q 422 304 399 327 q 377 351 327 351 q 323 351 311 350 q 306 349 304 349 l 245 125 q 244 122 242 115 q 236 91 236 85 q 236 67 253 60 q 271 53 323 53 q 420 53 491 103 q 562 153 618 262 l 667 250 l 603 0 z"},"s":{"x_min":0,"x_max":469,"ha":469,"o":"m 148 376 q 148 339 244 296 q 254 292 260 289 q 325 259 352 226 q 378 192 378 144 q 378 72 317 28 q 255 -16 156 -16 q 75 -16 25 16 q -24 49 -24 101 q -24 136 -5 156 q 14 177 46 177 q 76 177 96 158 q 116 140 116 112 q 116 86 100 70 q 83 54 83 52 q 83 42 103 35 q 123 28 152 28 q 196 28 221 47 q 246 65 246 98 q 246 139 171 172 q 154 180 145 184 q 81 214 56 246 q 32 278 32 327 q 32 398 86 440 q 140 482 231 482 q 313 482 363 451 q 412 421 412 371 q 412 340 392 321 q 372 302 340 302 q 311 302 292 318 q 273 335 273 359 q 273 375 286 393 q 299 411 299 417 q 299 426 280 433 q 262 440 235 440 q 194 440 171 423 q 148 406 148 376 z"},">":{"x_min":0,"x_max":833,"ha":833,"o":"m 129 583 l 704 347 l 704 250 l 129 13 l 129 120 l 566 298 l 129 476 z"},"l":{"x_min":0,"x_max":388,"ha":388,"o":"m 293 175 l 330 148 q 282 68 225 26 q 168 -16 109 -16 q 60 -16 35 6 q 10 28 10 72 q 10 88 13 107 q 16 126 22 147 l 154 600 q 162 627 164 638 q 166 648 166 654 q 166 667 155 675 q 144 683 125 683 l 79 684 l 92 731 l 347 740 l 165 105 q 165 104 164 101 q 161 90 161 84 q 161 73 166 68 q 170 63 180 63 q 196 63 229 94 q 261 125 293 175 z"},"8":{"x_min":0,"x_max":583,"ha":583,"o":"m 375 409 q 416 432 438 467 q 460 502 460 543 q 460 592 429 624 q 397 655 348 655 q 298 655 264 625 q 229 594 229 551 q 229 516 254 489 q 280 461 375 409 z m 210 316 q 161 290 136 249 q 111 208 111 155 q 111 99 145 64 q 179 29 235 29 q 299 29 342 65 q 385 101 385 155 q 385 220 237 301 q 219 311 210 316 z m 170 344 q 138 373 121 406 q 105 439 105 477 q 105 574 174 639 q 242 704 346 704 q 437 704 497 655 q 557 606 557 535 q 557 482 522 443 q 487 404 418 380 q 469 350 495 307 q 521 265 521 214 q 521 114 439 48 q 358 -17 232 -17 q 125 -17 61 30 q -4 76 -4 151 q -4 214 42 264 q 87 315 170 344 z"},"\\":{"x_min":0,"x_max":278,"ha":278,"o":"m 194 -93 l 141 -93 l 53 722 l 106 722 z"},"e":{"x_min":0,"x_max":502,"ha":502,"o":"m 147 228 q 235 242 289 287 q 343 331 343 388 q 343 410 328 423 q 314 437 291 437 q 247 437 209 382 q 171 327 147 228 z m 382 125 l 414 93 q 361 38 305 11 q 250 -16 186 -16 q 93 -16 35 39 q -24 94 -24 180 q -24 240 4 300 q 33 359 82 403 q 127 443 181 464 q 236 485 294 485 q 370 485 417 452 q 463 419 463 366 q 463 290 381 243 q 299 197 143 185 q 141 173 140 163 q 139 153 139 144 q 139 97 163 70 q 187 42 228 42 q 262 42 299 62 q 335 82 382 125 z"},"b":{"x_min":0,"x_max":607,"ha":607,"o":"m 59 684 l 72 731 l 332 740 l 240 432 q 267 457 302 470 q 336 483 375 483 q 448 483 494 434 q 541 385 541 308 q 541 173 448 79 q 354 -15 217 -15 q 121 -15 64 30 q 8 75 8 151 q 8 171 12 195 q 17 219 27 249 l 138 600 q 144 616 147 631 q 150 646 150 652 q 150 668 141 676 q 132 683 113 683 z m 156 114 q 156 74 174 51 q 192 28 224 28 q 252 28 277 50 q 301 72 322 115 q 348 167 364 228 q 380 288 380 325 q 380 366 361 388 q 342 411 309 411 q 283 411 259 389 q 234 367 214 325 q 188 272 172 212 q 156 151 156 114 z"},"%":{"x_min":0,"x_max":845,"ha":845,"o":"m 392 606 q 394 601 394 594 q 395 588 395 576 q 395 475 329 389 q 262 304 182 304 q 123 304 85 343 q 47 381 47 443 q 47 490 69 537 q 91 584 132 626 q 166 661 202 678 q 239 696 277 696 q 310 696 334 683 q 359 670 374 646 q 390 634 408 629 q 426 623 447 623 q 491 623 537 647 q 583 670 606 705 l 651 705 l 240 -17 l 191 -17 l 555 628 q 527 612 500 604 q 472 596 446 596 q 429 596 416 599 q 402 601 392 606 z m 364 614 q 346 617 333 626 q 319 636 310 651 q 292 649 274 633 q 256 616 232 577 q 194 517 172 463 q 149 408 149 379 q 149 359 163 345 q 177 332 198 332 q 228 332 258 357 q 289 382 318 431 q 342 471 354 511 q 367 550 367 584 q 367 592 366 599 q 366 607 364 614 z m 720 324 q 696 324 672 302 q 648 279 616 226 q 585 174 568 131 q 551 88 551 61 q 551 38 564 25 q 578 12 602 12 q 630 12 657 32 q 685 53 712 93 q 740 135 756 178 q 772 221 772 254 q 772 285 757 305 q 743 324 720 324 z m 671 373 q 731 373 766 340 q 800 308 800 250 q 800 207 781 158 q 763 109 729 65 q 697 24 662 3 q 626 -17 586 -17 q 524 -17 487 21 q 450 58 450 121 q 450 164 467 206 q 484 249 518 287 q 554 329 593 351 q 632 373 671 373 z"},"m":{"x_min":0,"x_max":961,"ha":961,"o":"m 663 306 q 671 333 676 348 q 680 364 680 370 q 680 383 672 391 q 664 399 652 399 q 596 399 534 289 q 473 179 433 0 l 285 0 l 378 304 q 387 332 390 347 q 394 362 394 369 q 394 382 386 391 q 379 399 366 399 q 318 399 261 310 q 203 221 163 74 l 143 0 l -13 0 l 92 339 q 98 357 101 369 q 103 381 103 389 q 103 404 93 413 q 83 422 66 422 l 17 422 l 29 470 l 269 478 l 238 345 q 288 412 339 447 q 391 482 440 482 q 486 482 512 457 q 538 432 538 388 q 538 380 538 375 q 538 371 537 365 q 585 424 632 453 q 678 482 724 482 q 771 482 800 453 q 828 424 828 376 q 828 359 823 335 q 818 312 810 288 l 752 122 q 747 107 744 98 q 742 89 742 83 q 742 74 746 69 q 750 64 759 64 q 772 64 795 92 q 818 119 854 177 l 891 151 q 843 68 793 25 q 744 -17 693 -17 q 648 -17 622 7 q 595 32 595 73 q 595 90 599 108 q 602 126 609 147 z"},"#":{"x_min":0,"x_max":769,"ha":769,"o":"m 345 415 l 301 294 l 428 294 l 471 415 z m 347 715 l 452 715 l 380 512 l 504 512 l 577 715 l 681 715 l 609 512 l 747 512 l 711 415 l 575 415 l 532 294 l 675 294 l 640 198 l 498 198 l 426 -5 l 321 -5 l 393 198 l 269 198 l 196 -5 l 91 -5 l 163 198 l 22 198 l 58 294 l 198 294 l 241 415 l 93 415 l 129 512 l 275 512 z"},",":{"x_min":0,"x_max":292,"ha":292,"o":"m -18 -151 l -32 -109 q 24 -86 52 -61 q 79 -36 83 -3 q 44 -3 23 17 q 2 37 2 74 q 2 115 28 142 q 54 169 94 169 q 138 169 165 141 q 193 113 193 68 q 193 -2 139 -58 q 85 -114 -18 -151 z"},"n":{"x_min":0,"x_max":685,"ha":685,"o":"m -11 0 l 94 339 q 100 357 103 369 q 105 381 105 389 q 105 404 95 413 q 85 422 69 422 l 19 422 l 31 470 l 271 478 l 240 345 q 293 413 345 447 q 396 481 447 481 q 500 481 528 454 q 556 427 556 376 q 556 362 552 340 q 547 318 537 288 l 477 103 q 476 98 475 93 q 474 88 474 83 q 474 75 478 70 q 482 66 490 66 q 506 66 532 94 q 557 122 590 176 l 625 151 q 577 66 526 25 q 475 -16 419 -16 q 371 -16 345 7 q 320 29 320 72 q 320 87 324 107 q 328 127 335 147 l 391 306 q 399 329 404 346 q 408 364 408 370 q 408 383 400 391 q 392 399 379 399 q 356 399 322 372 q 289 345 258 301 q 231 262 210 213 q 189 164 165 74 l 145 0 z"},"h":{"x_min":0,"x_max":685,"ha":685,"o":"m 240 345 q 293 413 345 447 q 396 481 447 481 q 500 481 528 454 q 556 427 556 376 q 556 362 552 340 q 547 318 537 288 l 477 103 q 476 98 475 93 q 474 88 474 83 q 474 75 478 70 q 482 66 490 66 q 506 66 532 95 q 558 124 590 177 l 625 151 q 577 66 526 25 q 475 -16 419 -16 q 371 -16 345 7 q 320 29 320 72 q 320 87 324 107 q 328 127 335 147 l 391 306 q 399 328 404 346 q 408 364 408 371 q 408 384 400 391 q 393 399 379 399 q 356 399 322 372 q 289 345 258 301 q 231 262 210 213 q 189 164 165 74 l 145 0 l -11 0 l 173 600 q 179 620 181 633 q 184 646 184 654 q 184 667 175 675 q 166 682 148 683 l 98 684 l 111 731 l 361 740 z"},"z":{"x_min":0,"x_max":536,"ha":536,"o":"m 420 173 l 462 159 q 438 75 386 30 q 335 -16 264 -16 q 201 -16 105 34 q 70 52 52 60 q 48 49 44 29 q 35 -16 5 -16 q -9 -16 -18 -6 q -27 4 -27 20 q -27 44 15 101 q 58 159 114 204 q 165 245 252 292 q 339 338 365 356 q 337 345 311 340 q 285 335 258 335 q 223 335 177 343 q 132 351 122 351 q 97 351 80 336 q 63 322 48 287 l 6 302 q 39 395 87 437 q 135 478 210 478 q 262 478 323 451 q 384 424 390 424 q 405 424 415 452 q 426 480 445 480 q 458 480 465 472 q 472 464 472 450 q 472 416 435 365 q 397 314 332 262 q 279 219 196 176 q 112 133 92 118 q 122 127 148 132 q 174 137 198 137 q 245 137 295 123 q 345 108 349 108 q 372 108 391 125 q 409 142 420 173 z"},"B":{"x_min":0,"x_max":759,"ha":759,"o":"m -50 0 l -40 53 l 16 57 q 35 59 45 67 q 54 76 62 106 l 197 620 q 198 623 199 626 q 199 630 199 636 q 199 650 190 658 q 180 667 163 668 l 100 672 l 112 722 l 381 722 q 487 722 537 718 q 587 713 618 702 q 670 684 700 644 q 730 604 730 553 q 730 472 667 423 q 603 374 493 371 l 493 365 q 589 357 640 314 q 692 271 692 198 q 692 144 663 100 q 635 56 583 31 q 548 14 491 7 q 435 0 328 0 z m 296 340 l 241 119 q 238 108 237 97 q 235 87 235 79 q 235 63 249 58 q 263 52 319 52 q 414 52 460 94 q 506 137 506 226 q 506 287 475 313 q 443 340 368 340 z m 364 612 l 308 394 l 365 394 q 456 394 500 438 q 545 482 545 572 q 545 622 518 645 q 490 668 431 668 q 399 668 386 657 q 374 647 364 612 z"},"K":{"x_min":0,"x_max":780,"ha":780,"o":"m 200 619 q 202 625 202 629 q 203 633 203 637 q 203 651 194 658 q 185 666 166 667 l 109 671 l 120 722 l 495 722 l 485 671 l 427 666 q 407 665 398 656 q 389 648 382 624 l 308 348 l 594 609 q 602 616 606 624 q 611 632 611 640 q 611 656 596 663 q 581 670 546 670 l 530 670 l 541 722 l 839 722 l 830 670 q 780 667 739 647 q 697 628 632 567 l 496 438 l 662 89 q 673 67 688 59 q 703 51 735 51 l 744 51 l 736 0 l 381 0 l 391 51 l 448 52 q 467 52 475 57 q 484 62 484 72 q 484 76 483 80 q 481 84 478 91 l 364 321 l 280 240 l 244 103 q 243 98 242 93 q 241 88 241 84 q 241 70 250 63 q 258 57 277 55 l 340 51 l 332 0 l -43 0 l -34 51 l 21 56 q 38 58 46 66 q 55 75 61 98 z"},"R":{"x_min":0,"x_max":794,"ha":794,"o":"m -47 0 l -40 53 l 16 57 q 34 59 44 66 q 53 74 58 92 l 200 620 q 201 623 202 626 q 202 630 202 636 q 202 650 193 658 q 184 667 166 668 l 103 672 l 111 722 l 509 722 q 631 722 691 681 q 750 640 750 556 q 750 463 674 412 q 599 361 461 360 l 460 356 q 537 341 573 299 q 609 257 609 180 q 609 163 608 137 q 607 111 607 103 q 607 81 614 69 q 621 57 634 57 q 650 57 666 79 q 682 101 703 153 l 744 134 q 713 52 672 17 q 632 -17 566 -17 q 502 -17 464 18 q 426 53 426 110 q 426 131 427 148 q 428 166 429 178 l 435 242 q 435 243 436 249 q 436 255 436 260 q 436 310 412 330 q 389 349 327 349 q 323 349 315 349 q 307 348 302 348 l 239 119 q 237 110 235 102 q 234 93 234 88 q 234 71 241 65 q 248 59 269 57 l 343 53 l 332 0 z m 373 615 l 316 401 l 365 401 q 474 401 523 443 q 573 485 573 576 q 573 624 542 646 q 510 669 445 669 q 410 669 396 658 q 382 648 373 615 z"},"T":{"x_min":0,"x_max":727,"ha":727,"o":"m 66 0 l 76 51 l 151 56 q 167 57 176 66 q 185 76 191 98 l 331 620 l 332 622 q 338 646 338 653 q 338 666 330 671 q 322 677 305 677 q 246 677 195 622 q 145 567 94 445 l 44 457 l 116 722 l 762 722 l 722 441 l 672 447 q 672 453 673 464 q 674 494 674 505 q 674 586 643 631 q 611 676 556 676 q 538 676 529 668 q 521 660 515 639 l 376 125 q 373 112 371 101 q 369 90 369 85 q 369 70 378 64 q 386 58 416 56 l 478 51 l 466 0 z"},"P":{"x_min":0,"x_max":727,"ha":727,"o":"m 306 365 l 333 365 q 335 365 343 365 q 351 364 356 364 q 451 364 501 415 q 551 466 551 562 q 551 616 523 643 q 495 669 437 669 q 409 669 396 659 q 383 650 375 621 z m 443 722 q 518 722 559 716 q 601 710 630 696 q 677 673 703 632 q 729 590 729 537 q 729 425 639 367 q 549 310 373 310 q 354 310 315 312 q 299 312 291 313 l 239 119 q 236 111 235 103 q 234 95 234 87 q 234 71 242 65 q 250 59 269 57 l 340 53 l 332 0 l -47 0 l -40 53 l 16 57 q 35 59 44 67 q 54 76 62 106 l 200 620 q 201 623 202 626 q 202 630 202 636 q 202 650 193 658 q 184 667 166 668 l 103 672 l 111 722 z"},"|":{"x_min":0,"x_max":500,"ha":500,"o":"m 200 764 l 301 764 l 301 -236 l 200 -236 z"},"t":{"x_min":0,"x_max":417,"ha":417,"o":"m 319 151 q 271 66 220 25 q 169 -16 113 -16 q 65 -16 40 7 q 14 29 14 72 q 14 86 17 104 q 20 121 28 147 l 111 410 l 17 410 l 34 470 l 132 470 l 195 654 l 343 654 l 284 470 l 394 470 l 379 410 l 265 410 l 177 122 q 172 106 170 98 q 168 89 168 83 q 168 75 172 70 q 176 66 184 66 q 200 66 226 94 q 251 123 284 177 z"},"M":{"x_min":0,"x_max":970,"ha":970,"o":"m 494 52 l 552 56 q 571 58 581 65 q 591 73 596 91 l 734 598 l 362 0 l 304 0 l 254 584 l 145 191 q 139 170 136 155 q 134 139 134 126 q 134 90 154 73 q 173 55 218 52 l 208 0 l -57 0 l -47 52 q 9 60 35 83 q 61 106 77 169 l 203 635 q 197 652 183 661 q 169 670 149 670 l 92 670 l 103 722 l 403 722 l 445 247 l 741 722 l 1014 722 l 1003 670 l 953 666 q 933 664 924 656 q 914 647 906 617 l 772 123 q 769 110 767 99 q 765 87 765 81 q 765 65 777 60 q 789 54 831 53 l 868 52 l 857 0 l 482 0 z"},"g":{"x_min":0,"x_max":583,"ha":583,"o":"m 90 201 q 65 224 53 251 q 40 278 40 310 q 40 387 105 437 q 169 487 272 487 q 304 487 327 483 q 350 479 367 472 q 397 509 431 528 q 464 547 498 547 q 529 547 549 530 q 569 512 569 486 q 569 460 553 443 q 538 425 515 425 q 482 425 467 455 q 452 485 450 485 q 441 485 431 477 q 421 469 412 455 q 456 429 477 396 q 498 364 498 322 q 498 252 436 208 q 374 163 274 163 q 247 163 203 167 q 159 170 142 170 q 119 170 105 160 q 92 150 92 134 q 92 102 208 96 q 212 96 215 96 q 224 96 242 95 q 329 91 365 76 q 399 61 418 34 q 437 6 437 -29 q 437 -113 358 -160 q 279 -208 138 -208 q 33 -208 -26 -178 q -84 -149 -84 -96 q -84 -60 -53 -37 q -22 -14 46 -1 q 14 9 -5 31 q -23 53 -23 83 q -23 118 6 148 q 34 178 90 201 z m 192 286 q 192 246 208 226 q 225 205 256 205 q 294 205 323 252 q 351 300 351 365 q 351 402 334 422 q 318 443 288 443 q 248 443 220 398 q 192 353 192 286 z m 106 -32 l 104 -32 q 75 -32 56 -48 q 37 -64 37 -88 q 37 -123 71 -143 q 104 -162 165 -162 q 236 -162 276 -141 q 315 -121 315 -83 q 315 -60 299 -49 q 283 -39 243 -37 z"},"j":{"x_min":0,"x_max":371,"ha":371,"o":"m 251 571 q 216 571 193 595 q 169 620 169 655 q 169 690 193 714 q 217 739 251 739 q 284 739 309 714 q 333 690 333 655 q 333 621 309 596 q 285 571 251 571 z m 40 467 l 304 478 l 197 72 q 158 -79 95 -142 q 32 -206 -72 -206 q -137 -206 -177 -176 q -216 -146 -216 -98 q -216 -63 -193 -40 q -171 -16 -137 -16 q -105 -16 -85 -34 q -65 -51 -65 -77 q -65 -107 -81 -129 q -96 -150 -96 -151 q -96 -156 -92 -160 q -87 -163 -80 -163 q -47 -163 -24 -131 q 0 -99 18 -30 l 116 339 q 121 355 123 368 q 125 381 125 391 q 125 406 115 413 q 106 420 84 421 l 28 423 z"},"i":{"x_min":0,"x_max":388,"ha":388,"o":"m 154 655 q 154 690 178 714 q 203 739 237 739 q 271 739 295 714 q 319 690 319 655 q 319 621 295 596 q 271 571 237 571 q 202 571 178 595 q 154 620 154 655 z m 174 103 q 171 94 171 90 q 170 86 170 83 q 170 74 174 69 q 179 64 187 64 q 202 64 229 94 q 256 125 287 177 l 322 151 q 273 66 223 25 q 172 -16 116 -16 q 68 -16 42 7 q 17 29 17 72 q 17 86 21 103 q 24 121 32 147 l 94 339 q 100 359 103 370 q 105 382 105 389 q 105 404 95 413 q 85 422 69 422 l 19 422 l 32 470 l 287 478 z"},"y":{"x_min":0,"x_max":525,"ha":525,"o":"m 315 136 l 365 228 q 374 245 380 266 q 386 288 386 303 q 386 321 368 355 q 350 389 350 415 q 350 445 369 462 q 387 480 418 480 q 451 480 469 462 q 487 445 487 412 q 487 368 449 286 q 412 204 331 71 q 232 -93 169 -150 q 105 -206 33 -206 q -19 -206 -48 -182 q -77 -159 -77 -117 q -77 -83 -57 -64 q -36 -44 -1 -44 q 26 -44 44 -60 q 61 -77 61 -102 q 61 -112 58 -123 q 54 -135 54 -137 q 54 -145 57 -148 q 61 -152 69 -152 q 86 -152 112 -133 q 138 -115 163 -84 l 212 -24 l 111 327 q 104 349 98 358 q 92 367 84 367 q 67 367 55 344 q 43 322 29 259 l -14 273 q 9 378 49 429 q 88 480 147 480 q 189 480 213 454 q 237 428 257 355 z"},"@":{"x_min":0,"x_max":986,"ha":986,"o":"m 574 156 q 544 107 509 83 q 473 60 430 60 q 361 60 322 104 q 282 149 282 227 q 282 283 307 335 q 331 388 377 431 q 411 462 449 479 q 488 495 528 495 q 575 495 601 473 q 628 451 636 406 l 660 486 l 753 486 l 668 184 l 667 181 q 660 152 660 138 q 660 115 670 102 q 680 89 697 89 q 713 89 738 101 q 764 113 786 132 q 836 175 863 238 q 890 301 890 377 q 890 511 798 595 q 706 678 559 678 q 492 678 431 660 q 371 641 320 605 q 235 546 190 454 q 144 363 144 251 q 144 87 247 -9 q 350 -105 523 -105 q 604 -105 679 -80 q 754 -56 829 -4 l 848 -29 q 774 -84 693 -112 q 611 -139 523 -139 q 432 -139 353 -117 q 275 -94 218 -52 q 144 3 104 84 q 65 165 65 261 q 65 337 90 407 q 116 477 165 536 q 236 621 334 667 q 433 712 547 712 q 717 712 820 620 q 922 527 922 374 q 922 295 893 228 q 864 160 810 111 q 781 85 748 72 q 715 58 681 58 q 633 58 605 83 q 578 109 574 156 z m 546 463 q 516 463 491 441 q 466 419 442 371 q 414 315 399 266 q 385 217 385 177 q 385 138 402 115 q 418 93 447 93 q 478 93 508 123 q 537 153 564 212 q 583 257 595 302 q 606 348 606 382 q 606 421 590 442 q 575 463 546 463 z"},".":{"x_min":0,"x_max":292,"ha":292,"o":"m 96 174 q 134 174 162 146 q 190 119 190 80 q 190 42 162 14 q 135 -14 96 -14 q 58 -14 31 14 q 3 42 3 80 q 3 119 31 146 q 59 174 96 174 z"},"p":{"x_min":0,"x_max":641,"ha":641,"o":"m -141 -208 l -129 -164 l -84 -161 q -71 -160 -64 -154 q -57 -148 -52 -132 l 87 358 q 90 367 91 376 q 93 384 93 390 q 93 408 80 415 q 67 421 7 421 l 20 470 l 256 477 l 237 396 q 273 438 313 457 q 353 477 400 477 q 479 477 525 428 q 572 379 572 296 q 572 235 546 175 q 521 116 474 70 q 431 28 381 5 q 331 -17 279 -17 q 235 -17 204 0 q 173 16 154 50 l 111 -104 q 108 -116 106 -125 q 105 -134 105 -140 q 105 -153 114 -158 q 124 -162 156 -163 l 182 -164 l 171 -208 z m 184 124 q 184 86 202 64 q 221 42 252 42 q 284 42 310 65 q 336 88 360 137 q 383 186 397 236 q 410 287 410 324 q 410 362 392 384 q 374 406 342 406 q 313 406 286 382 q 258 357 236 313 q 212 265 198 212 q 184 159 184 124 z"},"X":{"x_min":0,"x_max":736,"ha":736,"o":"m 436 672 l 397 671 q 365 670 355 664 q 345 659 345 645 q 345 640 346 634 q 348 629 350 624 l 421 465 l 550 589 q 561 600 566 612 q 572 624 572 635 q 572 655 553 664 q 535 673 494 673 l 505 722 l 811 722 l 796 671 q 753 668 721 654 q 688 639 647 598 l 448 406 l 578 114 q 593 80 610 68 q 626 56 660 54 l 691 52 l 691 0 l 314 0 l 314 52 l 357 54 q 359 54 363 54 q 409 57 409 76 q 409 83 403 97 q 401 102 400 104 l 320 283 l 188 148 q 171 130 165 119 q 159 108 159 97 q 159 74 179 63 q 199 53 243 52 l 232 0 l -77 0 l -66 51 q -28 56 5 74 q 39 92 80 133 l 294 342 l 169 620 q 156 649 144 656 q 131 664 103 666 l 59 670 l 59 722 l 436 722 z"},"*":{"x_min":0,"x_max":500,"ha":500,"o":"m 260 544 q 258 588 236 633 q 214 679 214 692 q 214 714 229 728 q 244 742 268 742 q 292 742 308 728 q 323 713 323 691 q 323 680 301 634 q 279 588 275 545 q 311 566 345 616 q 379 665 409 665 q 429 665 445 646 q 461 628 461 606 q 461 582 447 571 q 432 559 388 556 q 350 553 327 547 q 304 541 284 531 q 304 520 328 514 q 351 508 389 506 q 430 503 445 491 q 460 479 460 453 q 460 430 444 412 q 428 395 406 395 q 379 395 345 445 q 312 495 277 517 q 278 475 301 428 q 323 381 323 368 q 323 347 308 333 q 293 319 269 319 q 245 319 230 333 q 215 346 215 369 q 215 381 237 428 q 260 476 262 516 q 225 493 192 445 q 159 396 127 396 q 107 396 92 414 q 76 433 76 454 q 76 475 92 488 q 107 502 133 504 q 137 504 146 505 q 214 510 253 530 q 210 552 141 555 q 133 556 129 556 q 105 558 91 571 q 76 585 76 606 q 76 630 92 647 q 108 665 131 665 q 157 665 190 617 q 223 568 260 544 z"},"Y":{"x_min":0,"x_max":708,"ha":708,"o":"m 411 672 l 372 671 q 343 670 332 664 q 321 659 321 645 q 321 639 323 630 q 326 621 332 608 l 419 393 l 562 584 q 573 599 578 612 q 584 625 584 635 q 584 654 565 664 q 546 673 508 673 l 496 673 l 503 722 l 787 722 l 780 670 q 687 660 633 587 q 630 583 628 580 l 440 331 l 384 103 q 382 98 382 93 q 381 88 381 84 q 381 70 389 63 q 398 57 417 55 l 487 51 l 479 0 l 91 0 l 103 50 l 167 56 q 184 58 192 66 q 201 74 207 98 l 267 339 l 149 620 q 138 647 126 655 q 114 663 83 666 l 39 670 l 39 722 l 416 722 z"},"c":{"x_min":0,"x_max":503,"ha":503,"o":"m 382 145 l 414 117 q 372 52 313 18 q 254 -16 184 -16 q 92 -16 36 38 q -20 91 -20 179 q -20 236 3 292 q 27 347 69 390 q 112 434 171 459 q 229 484 289 484 q 370 484 416 450 q 463 416 463 358 q 463 314 437 288 q 411 261 370 261 q 337 261 317 281 q 296 300 296 331 q 296 363 322 385 q 348 408 348 416 q 348 427 336 434 q 324 441 306 441 q 274 441 246 421 q 218 400 195 360 q 170 316 154 256 q 137 196 137 150 q 137 99 161 73 q 186 47 233 47 q 270 47 310 73 q 351 99 382 145 z"},"!":{"x_min":0,"x_max":315,"ha":315,"o":"m 130 204 l 86 215 q 125 370 129 570 q 130 584 130 591 q 132 675 152 707 q 173 738 220 738 q 261 738 285 717 q 308 695 308 658 q 308 630 240 485 q 171 340 130 204 z m 66 151 q 100 151 125 126 q 150 101 150 66 q 150 32 125 7 q 101 -18 66 -18 q 32 -18 7 7 q -18 32 -18 66 q -18 101 7 126 q 32 151 66 151 z"},"/":{"x_min":0,"x_max":278,"ha":278,"o":"m 34 -93 l -21 -93 l 214 723 l 269 723 z"},"[":{"x_min":0,"x_max":407,"ha":407,"o":"m 244 -72 l 233 -114 l -17 -114 l 211 722 l 446 722 l 434 679 l 324 679 l 120 -72 z"},"6":{"x_min":0,"x_max":583,"ha":583,"o":"m 305 368 q 252 368 214 302 q 177 237 177 141 q 177 86 196 56 q 215 27 250 27 q 302 27 339 97 q 377 167 377 269 q 377 315 358 342 q 338 368 305 368 z m 208 357 q 240 396 278 414 q 315 432 364 432 q 437 432 484 381 q 531 331 531 251 q 531 142 449 62 q 367 -18 255 -18 q 153 -18 91 54 q 29 126 29 244 q 29 340 69 435 q 109 531 180 602 q 232 654 290 679 q 347 705 412 705 q 479 705 524 668 q 569 631 569 578 q 569 538 545 513 q 521 488 482 488 q 448 488 425 510 q 402 532 402 564 q 402 594 426 616 q 449 639 449 644 q 449 652 438 658 q 426 663 408 663 q 342 663 291 585 q 240 507 208 357 z"},"r":{"x_min":0,"x_max":535,"ha":535,"o":"m -6 0 l 94 339 q 95 341 96 345 q 105 377 105 389 q 105 404 95 413 q 85 422 69 422 l 19 422 l 31 470 l 271 478 l 240 357 q 284 424 329 458 q 375 491 422 491 q 464 491 489 468 q 513 444 513 403 q 513 368 491 345 q 470 322 437 322 q 406 322 388 338 q 369 354 369 381 l 369 392 q 369 404 366 408 q 363 412 354 412 q 322 412 261 312 q 201 212 163 73 l 144 0 z"},"2":{"x_min":0,"x_max":583,"ha":583,"o":"m 425 0 l -46 0 l -35 43 q 7 95 68 153 q 129 210 207 272 q 306 349 347 409 q 388 469 388 532 q 388 587 359 619 q 330 651 280 651 q 235 651 198 622 q 162 593 162 565 q 162 545 187 539 q 200 535 206 532 q 225 523 234 509 q 243 494 243 474 q 243 438 219 414 q 196 391 159 391 q 115 391 87 422 q 59 453 59 502 q 59 582 134 644 q 209 705 310 705 q 419 705 485 653 q 551 601 551 516 q 551 454 505 403 q 459 352 286 253 q 228 220 186 188 q 143 157 120 131 l 329 131 q 420 131 464 236 l 467 243 l 510 225 z"},"{":{"x_min":0,"x_max":500,"ha":500,"o":"m 416 740 l 416 710 q 357 709 335 684 q 314 658 314 581 l 314 516 q 314 406 288 366 q 262 326 192 310 q 262 294 288 255 q 314 215 314 105 l 314 39 q 314 -38 335 -63 q 357 -89 416 -90 l 416 -119 q 301 -119 260 -84 q 218 -48 218 50 l 218 144 q 218 225 190 255 q 163 285 87 292 l 87 329 q 163 336 190 366 q 218 396 218 477 l 218 571 q 218 669 260 705 q 301 740 416 740 z"},"9":{"x_min":0,"x_max":583,"ha":583,"o":"m 275 319 q 328 319 365 385 q 403 450 403 546 q 403 601 384 631 q 365 660 330 660 q 278 660 241 590 q 203 519 203 418 q 203 372 222 345 q 241 319 275 319 z m 372 330 q 339 291 302 273 q 265 255 216 255 q 144 255 96 306 q 49 356 49 436 q 49 545 131 625 q 213 705 325 705 q 427 705 489 634 q 551 562 551 444 q 551 348 511 252 q 471 156 400 85 q 348 33 291 8 q 233 -18 168 -18 q 101 -18 55 19 q 10 56 10 109 q 10 149 34 174 q 59 199 98 199 q 132 199 155 177 q 178 155 178 123 q 178 93 155 71 q 131 48 131 43 q 131 35 142 29 q 154 24 172 24 q 238 24 289 102 q 340 180 372 330 z"}," ":{"x_min":0,"x_max":292,"ha":292,"o":""},"I":{"x_min":0,"x_max":447,"ha":447,"o":"m 200 619 q 202 625 202 629 q 203 633 203 637 q 203 651 194 658 q 185 666 166 667 l 109 671 l 120 722 l 486 722 l 478 671 l 422 666 q 405 665 397 657 q 389 649 382 624 l 244 103 q 243 98 242 93 q 241 88 241 84 q 241 70 250 63 q 258 57 277 55 l 340 51 l 332 0 l -43 0 l -34 51 l 21 56 q 37 57 46 65 q 54 73 61 98 z"},"H":{"x_min":0,"x_max":864,"ha":864,"o":"m 480 722 l 469 671 l 420 667 q 403 666 393 656 q 383 646 377 624 l 318 406 l 569 406 l 626 619 q 627 624 628 628 q 629 632 629 636 q 629 650 620 658 q 611 666 593 667 l 540 671 l 550 722 l 905 722 l 895 671 l 845 667 q 827 666 817 656 q 808 647 802 624 l 663 103 q 662 97 661 92 q 660 87 660 82 q 660 69 668 63 q 676 57 696 55 l 750 51 l 739 0 l 385 0 l 394 51 l 446 56 q 462 58 471 67 q 480 76 486 98 l 552 342 l 301 342 l 237 103 q 235 97 235 92 q 234 86 234 82 q 234 69 242 63 q 250 57 270 55 l 324 51 l 313 0 l -41 0 l -32 51 l 16 56 q 35 58 44 67 q 54 76 60 98 l 200 619 q 201 624 202 629 q 203 634 203 638 q 203 652 195 659 q 186 666 167 667 l 113 671 l 124 722 z"},"4":{"x_min":0,"x_max":583,"ha":583,"o":"m 455 0 l 103 0 l 116 51 l 150 53 q 201 56 214 66 q 227 76 238 115 l 256 177 l 4 177 l 4 228 l 466 712 l 540 712 l 413 245 l 523 245 l 505 177 l 394 177 l 376 116 q 374 107 372 100 q 371 92 371 84 q 371 67 384 60 q 397 54 437 52 l 466 51 z m 275 245 l 347 518 l 88 245 z"},"~":{"x_min":0,"x_max":833,"ha":833,"o":"m 747 392 l 747 284 q 696 250 651 233 q 606 217 562 217 q 540 217 517 221 q 495 225 472 232 q 460 236 438 244 q 331 281 275 281 q 233 281 188 262 q 143 244 87 204 l 87 312 q 139 347 187 365 q 234 382 276 382 q 333 382 418 354 l 420 353 q 429 350 447 344 q 522 317 564 317 q 605 317 649 335 q 693 353 747 392 z"},"D":{"x_min":0,"x_max":848,"ha":848,"o":"m 237 103 q 235 97 235 93 q 234 89 234 86 q 234 67 247 61 q 259 54 303 54 q 384 54 438 83 q 492 111 533 175 q 572 237 597 323 q 621 410 621 489 q 621 585 581 627 q 541 669 447 669 q 412 669 398 660 q 384 650 377 622 z m -44 0 l -36 51 l 20 56 q 36 57 45 65 q 53 72 60 98 l 200 619 q 201 624 202 629 q 203 634 203 638 q 203 652 195 659 q 186 666 167 667 l 108 671 l 118 722 l 467 722 q 530 722 573 716 q 617 710 647 697 q 723 665 765 595 q 807 526 807 432 q 807 312 746 208 q 685 104 582 50 q 532 23 473 12 q 414 0 313 0 z"},"^":{"x_min":0,"x_max":1000,"ha":1000,"o":"m 442 714 l 557 714 l 797 438 l 742 438 l 499 620 l 256 438 l 201 438 z"},"0":{"x_min":0,"x_max":583,"ha":583,"o":"m 358 659 q 320 659 289 614 q 258 569 226 468 q 196 372 180 282 q 164 193 164 121 q 164 76 179 52 q 195 28 224 28 q 262 28 294 73 q 326 119 357 216 q 387 311 403 401 q 419 491 419 560 q 419 609 404 634 q 388 659 358 659 z m 562 442 q 562 353 531 261 q 500 170 446 102 q 399 43 345 13 q 291 -17 232 -17 q 136 -17 78 52 q 21 121 21 237 q 21 334 53 427 q 84 520 142 591 q 188 647 242 677 q 296 706 354 706 q 449 706 506 635 q 562 563 562 442 z"},"F":{"x_min":0,"x_max":704,"ha":704,"o":"m -40 0 l -31 51 l 21 56 q 38 58 46 67 q 55 76 61 98 l 201 620 q 203 626 203 631 q 204 636 204 640 q 204 653 196 660 q 187 667 168 668 l 114 672 l 125 722 l 729 722 l 688 475 l 637 477 l 637 499 q 637 590 602 629 q 567 668 486 668 q 483 668 470 668 q 457 669 447 669 q 414 669 402 661 q 389 653 381 624 l 320 402 l 339 402 q 409 402 448 431 q 488 460 510 526 l 563 519 l 471 181 l 418 187 q 418 189 419 193 q 424 232 424 250 q 424 303 401 327 q 378 351 328 351 q 324 351 312 350 q 307 349 305 349 l 246 125 q 243 112 241 102 q 239 91 239 86 q 239 66 254 60 q 270 53 343 53 l 334 0 z"},"`":{"x_min":0,"x_max":500,"ha":500,"o":"m 280 695 l 402 541 l 343 541 l 209 628 q 188 642 179 655 q 170 667 170 680 q 170 703 184 717 q 199 732 221 732 q 237 732 251 723 q 266 714 280 695 z"},"k":{"x_min":0,"x_max":676,"ha":676,"o":"m -11 0 l 169 600 l 169 602 q 180 639 180 651 q 180 666 170 674 q 160 683 143 683 l 94 684 l 106 731 l 356 740 l 240 352 q 298 422 349 452 q 399 483 453 483 q 507 483 541 455 q 575 428 575 386 q 575 329 525 286 q 474 243 375 215 q 401 206 417 184 q 432 163 440 125 q 442 114 445 95 q 449 58 464 58 q 478 58 497 83 q 516 107 538 156 l 575 136 q 543 58 499 21 q 456 -17 397 -17 q 344 -17 321 11 q 297 39 297 104 l 297 119 l 300 201 l 281 201 q 260 201 251 207 q 243 213 243 229 q 243 242 252 250 q 260 258 274 258 q 281 258 291 255 q 301 252 322 243 q 379 264 410 291 q 441 318 441 349 q 441 372 426 386 q 411 400 387 400 q 323 400 264 317 q 205 235 162 85 l 138 0 z"},"u":{"x_min":0,"x_max":685,"ha":685,"o":"m 584 178 l 623 152 q 570 67 519 26 q 467 -15 413 -15 q 368 -15 343 6 q 318 27 318 66 q 318 74 319 82 q 320 91 322 100 q 273 42 226 13 q 178 -15 128 -15 q 77 -15 47 12 q 18 39 18 86 q 18 104 23 126 q 28 149 38 179 l 91 339 q 96 353 98 365 q 101 378 101 387 q 101 404 92 413 q 83 422 66 422 l 16 422 l 28 470 l 289 478 l 178 140 q 173 126 171 115 q 168 103 168 97 q 168 83 175 76 q 182 68 195 68 q 248 68 306 153 q 365 238 407 383 l 433 470 l 586 470 q 511 249 489 178 q 468 106 468 84 q 468 75 472 70 q 477 65 485 65 q 499 65 524 93 q 548 121 584 178 z"},"]":{"x_min":0,"x_max":407,"ha":407,"o":"m 134 680 l 142 722 l 393 722 l 164 -114 l -70 -114 l -59 -71 l 51 -71 l 256 680 z"},"U":{"x_min":0,"x_max":833,"ha":833,"o":"m 487 722 l 476 671 l 417 667 q 394 665 384 658 q 374 651 367 624 l 281 308 q 270 266 264 237 q 259 208 259 188 q 259 120 299 81 q 340 41 410 41 q 488 41 543 94 q 598 148 625 250 l 700 540 q 706 563 708 576 q 710 588 710 597 q 710 632 687 650 q 664 668 613 671 l 625 722 l 897 722 l 889 671 q 839 669 812 644 q 785 619 768 556 l 684 241 q 648 107 572 44 q 496 -19 369 -19 q 239 -19 163 37 q 87 94 87 189 q 87 218 94 257 q 101 296 114 345 l 188 619 q 189 624 190 629 q 191 634 191 638 q 191 652 182 659 q 174 666 155 667 l 93 671 l 103 722 z"},"o":{"x_min":0,"x_max":574,"ha":574,"o":"m 284 440 q 255 440 231 417 q 207 394 184 343 q 162 293 147 230 q 132 167 132 128 q 132 84 152 58 q 173 32 207 32 q 237 32 262 56 q 288 80 308 128 q 330 180 344 242 q 358 303 358 344 q 358 388 338 414 q 318 440 284 440 z m 196 -15 q 97 -15 38 41 q -21 97 -21 189 q -21 243 3 297 q 28 351 72 393 q 120 439 178 462 q 236 486 303 486 q 396 486 454 430 q 511 375 511 283 q 511 164 417 74 q 323 -15 196 -15 z"},"N":{"x_min":0,"x_max":841,"ha":841,"o":"m -57 0 l -47 52 q 9 60 35 83 q 61 106 77 169 l 203 635 q 195 654 184 662 q 172 669 147 669 l 92 670 l 103 722 l 351 722 l 613 211 l 704 531 q 710 554 713 570 q 716 585 716 597 q 716 634 693 652 q 670 670 620 673 l 632 722 l 907 722 l 896 670 q 841 663 816 640 q 790 618 772 553 l 615 -14 l 544 -14 l 244 556 l 145 191 q 139 167 136 152 q 134 138 134 126 q 134 88 156 71 q 178 53 233 50 l 225 0 z"},"+":{"x_min":0,"x_max":833,"ha":833,"o":"m 367 596 l 466 596 l 466 347 l 709 347 l 709 250 l 466 250 l 466 0 l 367 0 l 367 250 l 124 250 l 124 347 l 367 347 z"},"G":{"x_min":0,"x_max":812,"ha":812,"o":"m 431 333 l 800 333 l 791 282 l 736 277 q 720 276 711 268 q 702 259 696 235 l 631 -18 l 583 -18 l 564 77 q 526 29 474 5 q 422 -18 353 -18 q 203 -18 118 60 q 34 137 34 275 q 34 376 74 470 q 115 563 186 628 q 246 682 321 711 q 397 741 474 741 q 536 741 582 722 q 627 702 671 657 l 728 715 l 771 715 l 716 432 l 666 439 q 664 561 619 625 q 574 688 491 688 q 435 688 389 653 q 342 618 303 546 q 264 475 242 390 q 221 305 221 223 q 221 134 259 84 q 297 34 364 34 q 420 34 457 71 q 494 108 512 184 l 523 231 q 524 236 525 241 q 526 245 526 249 q 526 263 517 270 q 509 276 490 278 l 421 282 z"},"q":{"x_min":0,"x_max":612,"ha":612,"o":"m 152 -208 l 163 -164 l 211 -161 q 224 -160 232 -153 q 240 -146 244 -132 l 294 40 q 261 11 227 -3 q 193 -17 155 -17 q 78 -17 29 34 q -19 86 -19 169 q -19 230 4 285 q 27 340 74 388 q 118 433 167 455 q 215 477 272 477 q 322 477 359 456 q 395 434 411 395 l 501 477 l 572 477 l 406 -104 q 403 -115 402 -124 q 400 -134 400 -140 q 400 -152 408 -157 q 416 -161 452 -163 l 470 -164 l 459 -208 z m 297 423 q 271 423 248 402 q 225 382 202 338 q 176 288 158 227 q 140 165 140 132 q 140 94 159 71 q 178 49 209 49 q 237 49 262 71 q 287 92 308 135 q 334 186 351 245 q 367 303 367 338 q 367 378 348 400 q 330 423 297 423 z"},"d":{"x_min":0,"x_max":662,"ha":662,"o":"m 322 76 q 289 32 245 9 q 202 -14 152 -14 q 75 -14 27 40 q -21 95 -21 183 q -21 243 3 298 q 27 353 74 398 q 116 438 165 460 q 215 481 267 481 q 312 481 346 464 q 379 446 397 413 l 451 600 q 456 616 458 630 q 461 645 461 654 q 461 668 454 675 q 447 681 427 682 l 366 684 l 379 731 l 642 740 l 474 162 l 473 157 q 458 107 458 90 q 458 81 463 75 q 468 69 475 69 q 492 69 516 94 q 539 120 578 181 l 611 156 q 560 70 509 27 q 458 -16 407 -16 q 366 -16 344 8 q 322 31 322 76 z m 140 136 q 140 97 158 75 q 176 53 208 53 q 235 53 260 74 q 284 94 305 136 q 332 188 349 248 q 366 308 366 343 q 366 381 348 404 q 331 426 300 426 q 269 426 243 402 q 217 378 194 327 q 169 273 155 220 q 140 167 140 136 z"},"1":{"x_min":0,"x_max":583,"ha":583,"o":"m 418 0 l 32 0 l 45 51 l 107 53 q 135 54 148 63 q 161 72 167 96 l 271 518 q 272 524 275 533 q 279 549 279 554 q 279 571 265 578 q 251 584 196 584 l 185 584 l 156 584 l 169 634 q 242 637 306 655 q 370 673 420 705 l 457 705 l 318 128 q 314 111 312 97 q 310 83 310 73 q 310 64 318 59 q 327 54 342 53 l 431 51 z"},"5":{"x_min":0,"x_max":583,"ha":583,"o":"m 94 390 l 185 715 q 263 693 311 684 q 359 675 394 675 q 442 675 485 685 q 529 696 563 715 l 581 703 q 547 629 483 589 q 419 548 336 548 q 292 548 204 570 l 195 572 l 151 416 q 188 436 226 446 q 263 456 302 456 q 395 456 454 400 q 514 345 514 258 q 514 144 421 63 q 328 -17 195 -17 q 104 -17 48 29 q -8 75 -8 147 q -8 197 18 226 q 44 256 87 256 q 127 256 152 231 q 177 207 177 168 q 177 123 141 97 q 106 72 106 67 q 106 50 125 39 q 143 28 173 28 q 221 28 252 46 q 283 63 309 104 q 332 139 344 185 q 357 231 357 276 q 357 332 329 362 q 302 392 250 392 q 225 392 197 382 q 169 373 136 352 q 127 323 117 312 q 107 301 90 301 q 75 301 65 311 q 56 320 56 336 q 56 352 65 365 q 75 378 94 390 z"}}}
